PathFileType	4	(x/y/z)	S04_M20_T03.trc
DataRate	CameraRate	NumFrames	NumMarkers	Units	OrigDataRate	OrigDataStartFrame	OrigNumFrames
240	240	5	51	mm	240	283	565
Frame#	Time	Sternum			R.Acromium			L.Acromium			Top.Head			R.ASIS			L.ASIS			R.PSIS			L.PSIS			R.Great.Tro			L.Great.Tro			R.Iliac.Crest			L.Iliac.Crest			V.Sacral			R.Thigh.Upper.Post			R.Thigh.Lower.Ant			R.Thigh.Lower.Post			R.Thigh.Upper.Ant			R.Knee.Lat			R.Knee.Med			R.Shank.Upper.Post			R.Shank.Lower.Ant			R.Shank.Lower.Post			R.Shank.Upper.Ant			R.Ankle.Lat			R.Ankle.Med			R.Heel.Upper			R.Heel.Med			R.Heel.Lat			R.Toe.Lat			R.Toe.Med			R.Toe.Tip			L.Thigh.Upper.Post			L.Thigh.Lower.Ant			L.Thigh.Lower.Post			L.Thigh.Upper.Ant			L.Knee.Lat			L.Knee.Med			L.Shank.Upper.Post			L.Shank.Lower.Ant			L.Shank.Lower.Post			L.Shank.Upper.Ant			L.Ankle.Lat			L.Ankle.Med			L.Heel.Upper			L.Heel.Med			L.Heel.Lat			L.Toe.Lat			L.Toe.Med			L.Toe.Tip			Cervical.Spine			Back			
		X1	Y1	Z1	X2	Y2	Z2	X3	Y3	Z3	X4	Y4	Z4	X5	Y5	Z5	X6	Y6	Z6	X7	Y7	Z7	X8	Y8	Z8	X9	Y9	Z9	X10	Y10	Z10	X11	Y11	Z11	X12	Y12	Z12	X13	Y13	Z13	X14	Y14	Z14	X15	Y15	Z15	X16	Y16	Z16	X17	Y17	Z17	X18	Y18	Z18	X19	Y19	Z19	X20	Y20	Z20	X21	Y21	Z21	X22	Y22	Z22	X23	Y23	Z23	X24	Y24	Z24	X25	Y25	Z25	X26	Y26	Z26	X27	Y27	Z27	X28	Y28	Z28	X29	Y29	Z29	X30	Y30	Z30	X31	Y31	Z31	X32	Y32	Z32	X33	Y33	Z33	X34	Y34	Z34	X35	Y35	Z35	X36	Y36	Z36	X37	Y37	Z37	X38	Y38	Z38	X39	Y39	Z39	X40	Y40	Z40	X41	Y41	Z41	X42	Y42	Z42	X43	Y43	Z43	X44	Y44	Z44	X45	Y45	Z45	X46	Y46	Z46	X47	Y47	Z47	X48	Y48	Z48	X49	Y49	Z49	X50	Y50	Z50	X51	Y51	Z51	

283	1.175	587.96	1287.4	304.18	464.82	1509.4	490.73	438.21	1502.4	140.44	463.45	1838.2	307.92	564.15	1001.1	444.65	565.96	1017.8	192.2	351.29	1040.5	339.07	361.7	1043.1	258.24	472.87	921.42	502.25	457.87	932.42	119.6	476.99	1089.7	485.17	464.57	1100	142.86	335.48	999.84	297.63	477.16	659.85	474.04	553.12	580.41	436.15	478.18	570.55	455.3	561.46	687.87	464.54	504.6	504.83	442.57	476.72	504.65	309.78	420.15	281.36	426.12	482.05	203.83	376.1	415.68	212.93	405.14	483.66	271.75	404.87	420.92	102.46	377.22	437.18	120.05	288.54	354.36	76.263	320.3	362	45.996	288.95	358.44	43.565	354.39	530.42	39.777	400.63	563.46	42.048	280.16	627.48	58.756	327.55	529.76	694.58	123.98	640.46	635.28	124.42	570.79	615.93	134.1	594.83	712.31	111.67	627.28	543.63	137.1	640.38	525.64	265.99	473.55	427.41	147.98	491.83	318.25	138.66	442.03	356.63	152.24	523.62	388.19	133.65	399.69	192.66	155.13	414.85	198.67	247.74	319.11	199.95	208.25	315.91	174.32	242.36	308.58	173.89	180.38	463.19	82.472	130.21	504.06	76.273	241.19	554.89	62.496	189.75	402.82	1555.7	324.36	329.19	1296.8	302.26
284	1.1792	592.51	1287.3	304.55	469.06	1509.3	490.8	443.2	1502.2	140.44	468.2	1838.1	307.95	567.98	1001	445.15	570.99	1017.8	192.64	355.59	1040.3	338.56	366.34	1042.9	257.78	476.35	921.24	502.27	463.28	932.38	119.55	480.66	1089.5	485.32	469.56	1099.8	142.86	339.95	999.67	297.09	479.46	659.82	474	555.11	579.98	436.38	480.1	570.52	455.37	563.95	687.39	464.72	506.15	504.6	442.71	478.6	504.51	309.85	420.88	281.46	426.04	482.52	203.71	376.08	416.18	213.04	405.04	484.33	271.62	404.87	421.02	102.57	377.11	437.21	120.08	288.38	354.41	76.369	320.22	361.98	46.05	288.93	358.45	43.713	354.37	530.45	39.768	400.61	563.45	41.911	280.09	627.57	58.534	327.54	536.25	694.85	124.15	647.35	636.23	124.95	577.73	616.48	134.44	601.22	712.93	111.96	634.8	544.48	137.71	648	526.75	266.53	482.99	425.51	148.37	503.25	316.7	138.94	452.73	354.16	152.56	533.72	387.22	133.96	413.44	189.34	155.17	428.42	195.5	247.8	332.72	195.04	208.26	330	169.29	242.38	322.71	168.82	180.42	479.06	80.454	130.15	520	74.824	241.12	571.1	62.118	189.67	407.43	1555.7	324.3	333.79	1296.7	302.04
285	1.1833	597.05	1287.1	304.91	473.29	1509.1	490.86	448.2	1502	140.44	472.95	1838	307.98	571.8	1000.8	445.63	576	1017.7	193.07	359.91	1040.1	338.06	370.99	1042.7	257.32	479.84	921.06	502.28	468.68	932.31	119.49	484.37	1089.3	485.46	474.54	1099.6	142.86	344.43	999.48	296.56	481.79	659.81	473.96	557.12	579.56	436.61	482.04	570.48	455.44	566.45	686.91	464.89	507.72	504.37	442.85	480.5	504.37	309.93	421.61	281.56	425.96	482.98	203.6	376.07	416.68	213.15	404.94	485	271.5	404.88	421.13	102.69	377.01	437.25	120.11	288.23	354.47	76.475	320.15	361.98	46.105	288.92	358.46	43.865	354.35	530.47	39.76	400.6	563.42	41.778	280.03	627.66	58.32	327.53	542.67	695.1	124.33	654.16	637.13	125.48	584.58	617	134.78	607.55	713.5	112.25	642.23	545.28	138.32	655.51	527.82	267.07	492.42	423.55	148.76	514.67	315.16	139.23	463.45	351.66	152.87	543.79	386.23	134.27	427.26	186.05	155.22	442.06	192.36	247.86	346.43	190.13	208.26	344.19	164.28	242.39	336.94	163.75	180.46	494.99	78.496	130.12	535.98	73.46	241.09	587.33	61.829	189.65	412.04	1555.6	324.23	338.38	1296.6	301.8
286	1.1875	601.6	1286.8	305.27	477.52	1508.9	490.92	453.2	1501.8	140.42	477.72	1837.8	307.99	575.62	1000.6	446.1	581	1017.6	193.49	364.24	1039.9	337.56	375.64	1042.5	256.87	483.36	920.87	502.28	474.05	932.23	119.44	488.09	1089.1	485.58	479.51	1099.4	142.85	348.91	999.29	296.03	484.14	659.79	473.92	559.14	579.14	436.83	484	570.45	455.51	568.97	686.42	465.04	509.3	504.14	442.99	482.4	504.23	310.02	422.34	281.67	425.88	483.44	203.49	376.07	417.18	213.27	404.84	485.68	271.38	404.9	421.24	102.81	376.9	437.29	120.16	288.08	354.53	76.581	320.07	361.99	46.16	288.92	358.47	44.021	354.33	530.5	39.751	400.58	563.39	41.65	279.97	627.75	58.111	327.52	549.01	695.32	124.5	660.89	637.97	126.01	591.35	617.48	135.12	613.82	714.02	112.53	649.57	546.05	138.93	662.93	528.85	267.61	501.83	421.56	149.14	526.1	313.61	139.53	474.17	349.13	153.19	553.83	385.22	134.59	441.16	182.77	155.28	455.75	189.25	247.92	360.21	185.23	208.26	358.46	159.29	242.39	351.28	158.7	180.49	510.99	76.605	130.13	551.99	72.189	241.1	603.59	61.636	189.69	416.66	1555.4	324.15	342.97	1296.5	301.56
287	1.1917	606.15	1286.6	305.61	481.76	1508.7	490.96	458.2	1501.5	140.4	482.49	1837.6	308	579.45	1000.4	446.54	585.99	1017.5	193.9	368.57	1039.7	337.07	380.29	1042.3	256.42	486.9	920.67	502.28	479.41	932.12	119.4	491.84	1088.9	485.7	484.48	1099.2	142.84	353.4	999.08	295.52	486.52	659.78	473.89	561.18	578.73	437.04	485.97	570.41	455.6	571.51	685.94	465.2	510.89	503.91	443.14	484.3	504.1	310.11	423.07	281.78	425.8	483.9	203.39	376.08	417.69	213.4	404.75	486.37	271.26	404.93	421.37	102.92	376.8	437.36	120.21	287.94	354.59	76.687	319.98	362.01	46.216	288.93	358.49	44.181	354.3	530.53	39.743	400.57	563.35	41.525	279.91	627.84	57.907	327.52	555.29	695.51	124.67	667.54	638.76	126.55	598.04	617.92	135.47	620.03	714.5	112.81	656.83	546.76	139.54	670.24	529.83	268.14	511.23	419.52	149.5	537.52	312.07	139.82	484.91	346.58	153.49	563.86	384.19	134.91	455.13	179.52	155.35	469.52	186.18	247.99	374.08	180.35	208.25	372.82	154.35	242.39	365.72	153.68	180.51	527.04	74.785	130.18	568.04	71.017	241.17	619.87	61.545	189.79	421.27	1555.3	324.06	347.55	1296.4	301.3
